# xmcd
#
# Track frame offsets: 
#        150
#        19805
#        47448
#        70311
#        88348
#        110454
#        139039
#        169778
#        192242
#        211126
#        234563
#        249838
#        262544
#        286857
#        309565
#
# Disc length: 4504 seconds
#
# Revision: 1
# Processed by: cddbd v1.5.2PL0 Copyright (c) Steve Scherf et al.
# Submitted via: ExactAudioCopy v0.99pb4
#
DISCID=c611960f
DTITLE=Bruce Springsteen - Copenhagen, 6-22-05(Sandkaas version-Disc 1
DTITLE=)
DYEAR=2005
DGENRE=Rock and Roll
TTITLE0=My Beautifull Reward
TTITLE1=Reason to Believe
TTITLE2=Devils and Dust
TTITLE3=Empty Sky
TTITLE4=Long Time Comin'
TTITLE5=Silver Palomino
TTITLE6=Incident on 57th Street
TTITLE7=Tougher Than the Rest
TTITLE8=Part Man, Part Monkey
TTITLE9=All I'm Thinkin' About
TTITLE10=Straight Time
TTITLE11=I'm on Fire
TTITLE12=Reno
TTITLE13=I Wish I Were Blind
TTITLE14=Spirit in the Night
EXTD=
EXTT0=
EXTT1=
EXTT2=
EXTT3=
EXTT4=
EXTT5=
EXTT6=
EXTT7=
EXTT8=
EXTT9=
EXTT10=
EXTT11=
EXTT12=
EXTT13=
EXTT14=
PLAYORDER=
